
------------------------------------------------------------

Exact Audio Copy V0.99 prebeta 5 from 4. May 2009

EAC extraction logfile from 14. July 2010, 17:21

Various / Join The Q Bnous Disk

Used drive  : Compaq  DVD-ROM SD-M1612   Adapter: 1  ID: 0

Read mode               : Secure
Utilize accurate stream : Yes
Defeat audio cache      : Yes
Make use of C2 pointers : No

Read offset correction                      : -472
Overread into Lead-In and Lead-Out          : No
Fill up missing offset samples with silence : Yes
Delete leading and trailing silent blocks   : No
Null samples used in CRC calculations       : Yes
Used interface                              : Installed external ASPI interface
Gap handling                                : Appended to previous track

Used output format              : User Defined Encoder
Selected bitrate                : 192 kBit/s
Quality                         : High
Add ID3 tag                     : No
Command line compressor         : C:\Program Files\FLAC\flac.exe
Additional command line options : -V -8 -T "artist=%a" -T "title=%t" -T "album=%g" -T "date=%y" -T "tracknumber=%n" -T "genre=%m" %s


TOC of the extracted CD

     Track |   Start  |  Length  | Start sector | End sector 
    ---------------------------------------------------------
        1  |  0:00.00 |  4:38.73 |         0    |    20922   
        2  |  4:38.73 |  5:50.63 |     20923    |    47235   
        3  | 10:29.61 |  4:46.20 |     47236    |    68705   
        4  | 15:16.06 |  2:13.61 |     68706    |    78741   
        5  | 17:29.67 |  4:58.52 |     78742    |   101143   
        6  | 22:28.44 |  6:13.51 |    101144    |   129169   
        7  | 28:42.20 |  6:19.55 |    129170    |   157649   
        8  | 35:02.00 |  5:47.63 |    157650    |   183737   
        9  | 40:49.63 |  5:13.39 |    183738    |   207251   
       10  | 46:03.27 |  5:17.40 |    207252    |   231066   
       11  | 51:20.67 |  3:34.20 |    231067    |   247136   
       12  | 54:55.12 |  6:12.51 |    247137    |   275087   
       13  | 61:07.63 |  5:32.03 |    275088    |   299990   
       14  | 66:39.66 |  6:07.61 |    299991    |   327576   


Track  1

     Filename C:\temp\Uploads\01 - Lost Weekend (Instrumental) - Lost Weekend (Instrumental).wav

     Pre-gap length  0:00:02.00

     Peak level 99.4 %
     Track quality 100.0 %
     Test CRC C0E9D526
     Copy CRC C0E9D526
     Track not present in AccurateRip database
     Copy OK

Track  2

     Filename C:\temp\Uploads\02 - On the Run  (Instrumental) - On the Run  (Instrumental).wav

     Pre-gap length  0:00:02.00

     Peak level 98.8 %
     Track quality 100.0 %
     Test CRC A77349B7
     Copy CRC A77349B7
     Track not present in AccurateRip database
     Copy OK

Track  3

     Filename C:\temp\Uploads\03 - Dem Na Like Me  (Instrumental) - Dem Na Like Me  (Instrumental).wav

     Pre-gap length  0:00:02.00

     Peak level 98.8 %
     Track quality 99.9 %
     Test CRC B4538C14
     Copy CRC B4538C14
     Track not present in AccurateRip database
     Copy OK

Track  4

     Filename C:\temp\Uploads\04 - Swag Intro  (Instrumental) - Swag Intro  (Instrumental).wav

     Pre-gap length  0:00:02.00

     Peak level 98.8 %
     Track quality 99.9 %
     Test CRC 6FB1F64A
     Copy CRC 6FB1F64A
     Track not present in AccurateRip database
     Copy OK

Track  5

     Filename C:\temp\Uploads\05 - Swag  (Instrumental) - Swag  (Instrumental).wav

     Pre-gap length  0:00:02.00

     Peak level 99.9 %
     Track quality 100.0 %
     Test CRC BD2B5071
     Copy CRC BD2B5071
     Track not present in AccurateRip database
     Copy OK

Track  6

     Filename C:\temp\Uploads\06 - Drop Audio  (Instrumental) - Drop Audio  (Instrumental).wav

     Pre-gap length  0:00:02.00

     Peak level 100.0 %
     Track quality 100.0 %
     Test CRC 43C1FBCE
     Copy CRC 43C1FBCE
     Track not present in AccurateRip database
     Copy OK

Track  7

     Filename C:\temp\Uploads\07 - When Ur Lonely  (Instrumental) - When Ur Lonely  (Instrumental).wav

     Pre-gap length  0:00:02.00

     Peak level 100.0 %
     Track quality 100.0 %
     Test CRC A2F74481
     Copy CRC A2F74481
     Track not present in AccurateRip database
     Copy OK

Track  8

     Filename C:\temp\Uploads\08 - Stombox (Spor Remix) - Stombox (Spor Remix).wav

     Pre-gap length  0:00:02.00

     Peak level 100.0 %
     Track quality 100.0 %
     Test CRC 3411425B
     Copy CRC 3411425B
     Track not present in AccurateRip database
     Copy OK

Track  9

     Filename C:\temp\Uploads\09 - Dem Na Like Me (VIP Remix) - Dem Na Like Me (VIP Remix).wav

     Pre-gap length  0:00:02.00

     Peak level 100.0 %
     Track quality 100.0 %
     Test CRC 79DC4494
     Copy CRC 79DC4494
     Track not present in AccurateRip database
     Copy OK

Track 10

     Filename C:\temp\Uploads\10 - Lost Weekend (The Qemists Got Your Money Remix) - Lost Weekend (The Qemists Got Your Money Remix).wav

     Pre-gap length  0:00:02.01

     Peak level 99.8 %
     Track quality 100.0 %
     Test CRC 08D9D335
     Copy CRC 08D9D335
     Track not present in AccurateRip database
     Copy OK

Track 11

     Filename C:\temp\Uploads\11 - Dem Na Like Me (Elektrons Remix) - Dem Na Like Me (Elektrons Remix).wav

     Pre-gap length  0:00:02.01

     Peak level 100.0 %
     Track quality 100.0 %
     Test CRC 0430A3B3
     Copy CRC 0430A3B3
     Track not present in AccurateRip database
     Copy OK

Track 12

     Filename C:\temp\Uploads\12 - Lost Weekend (Hot Pink Delorean Remix) - Lost Weekend (Hot Pink Delorean Remix).wav

     Pre-gap length  0:00:02.01

     Peak level 89.7 %
     Track quality 100.0 %
     Test CRC D0F3FD03
     Copy CRC D0F3FD03
     Track not present in AccurateRip database
     Copy OK

Track 13

     Filename C:\temp\Uploads\13 - Everything Is Under Control (The Qemists Remix) - Everything Is Under Control (The Qemists Remix).wav

     Pre-gap length  0:00:02.01

     Peak level 99.8 %
     Track quality 99.9 %
     Test CRC 4533B001
     Copy CRC 4533B001
     Track not present in AccurateRip database
     Copy OK

Track 14

     Filename C:\temp\Uploads\14 - Atomic Moog (The Qemists Remix) - Atomic Moog (The Qemists Remix).wav

     Pre-gap length  0:00:02.01

     Peak level 73.9 %
     Track quality 100.0 %
     Test CRC 6198BFCE
     Copy CRC 6198BFCE
     Track not present in AccurateRip database
     Copy OK


None of the tracks are present in the AccurateRip database

No errors occurred

End of status report
